name C:\Users\tom_v\MusculoskeletalSpecialization\ResultsSprinting\Case_2\motion.mot
datacolumns 32
datarows 13
range 0.09740394 0.14415783
endheader 
time	pelvis_tilt	pelvis_list	pelvis_rotation	pelvis_tx	pelvis_ty	pelvis_tz	hip_flexion_r	hip_adduction_r	hip_rotation_r	knee_angle_r	ankle_angle_r	subtalar_angle_r	mtp_angle_r	hip_flexion_l	hip_adduction_l	hip_rotation_l	knee_angle_l	ankle_angle_l	subtalar_angle_l	mtp_angle_l	lumbar_extension	lumbar_bending	lumbar_rotation	arm_flex_r	arm_add_r	arm_rot_r	elbow_flex_r	arm_flex_l	arm_add_l	arm_rot_l	elbow_flex_l	
          0.09740394	         -9.34219289	          9.39316360	        -16.83153285	          0.96443637	          0.96458176	          0.00585470	         -1.33547555	        -11.31908886	          6.70094716	        -33.00264953	        -19.62339059	         -5.04761508	         -2.17447862	         56.95078467	         -1.06050518	         -8.31019117	        -59.72789651	         13.64018690	          3.05933946	          6.16153518	         -7.04978718	         -7.79084653	          9.91598360	         49.99710015	        -42.40442128	         -7.73272106	        109.77793994	        -69.99555923	          3.55259375	         -6.59671192	          1.66081192	
          0.10130010	         -8.84486117	          9.39102008	        -16.83645923	          1.00258808	          0.96635784	          0.00658640	         -2.27600655	        -11.54178533	          7.12244641	        -33.66787157	        -19.89919588	         -4.74404341	          0.68325486	         56.91290140	         -1.03290699	         -8.43890344	        -57.74618187	         14.48102982	          2.50506833	          6.43320771	         -7.58317757	         -8.19786464	         10.01866345	         49.99709565	        -42.41270328	         -5.48201412	        106.54798904	        -69.99498031	          2.83603388	        -11.01857366	          0.54466887	
          0.10519625	         -8.27259193	          9.33015092	        -16.90503917	          1.04064239	          0.96836709	          0.00739348	         -3.16929168	        -11.66966821	          7.64226576	        -34.29896515	        -21.03247216	         -5.83192380	          2.61786014	         56.54736159	         -1.06907999	         -8.68352953	        -55.50044095	         15.24364694	          2.10541157	          6.59989489	         -8.23173268	         -8.58195704	         10.14608715	         49.98245296	        -42.47086754	         -3.27959487	        102.37918112	        -69.99756066	          2.14756275	        -13.08909342	          0.02883548	
          0.10909241	         -7.63904606	          9.22639638	        -17.02503461	          1.07862518	          0.97057158	          0.00820933	         -3.98741509	        -11.76246602	          8.22717330	        -34.94867453	        -21.78180348	         -5.94717325	          3.58469886	         55.89460723	         -1.12294314	         -8.99584527	        -53.06318120	         15.98158163	          1.83282379	          6.43965148	         -8.97205242	         -8.95812362	         10.30025715	         49.97707653	        -42.54853116	         -1.25646720	         97.19194492	        -69.98013620	          1.55321967	        -12.90277332	          0.02949747	
          0.11298857	         -6.96525856	          9.07331146	        -17.16958749	          1.11656999	          0.97294523	          0.00897673	         -4.71705241	        -11.82859894	          8.77657978	        -35.62839687	        -21.84849609	         -4.97299651	          4.36798426	         55.00552109	         -1.16560283	         -9.31414832	        -50.51569113	         16.73520973	          1.62578786	          5.57259450	         -9.78110595	         -9.31427432	         10.47775587	         49.98755687	        -42.59739063	          0.46573644	         90.94041571	        -69.76839463	          1.07505567	        -11.00409498	          0.10737106	
          0.11688473	         -6.26976590	          8.85726914	        -17.31242943	          1.15450575	          0.97546415	          0.00966848	         -5.35213300	        -11.84764709	          9.18394726	        -36.31209560	        -22.06204224	         -4.36323220	          5.09227602	         53.92656519	         -1.18762695	         -9.59051865	        -47.93274435	         17.46870266	          1.41584215	          4.16483621	        -10.64671412	         -9.63276585	         10.67681579	         49.99919601	        -42.59562994	          1.82303613	         83.73605830	        -69.32952473	          0.72435949	         -8.24119876	          0.26632712	
          0.12078088	         -5.56719331	          8.58534390	        -17.44007638	          1.19244642	          0.97807957	          0.01027629	         -5.87555262	        -11.82552678	          9.41374230	        -37.01900950	        -22.24527827	         -4.25607349	          5.49073359	         52.69790919	         -1.18070214	         -9.80655652	        -45.36843236	         18.16103953	          1.18162910	          2.73123876	        -11.55796829	         -9.91608188	         10.89832925	         49.99868514	        -42.57354492	          2.91309859	         75.84490699	        -68.77496368	          0.48724815	         -5.59096792	          0.92617617	
          0.12467704	         -4.88745466	          8.27060199	        -17.54303244	          1.23038626	          0.98070818	          0.01081201	         -6.24638454	        -11.76634086	          9.48610717	        -37.78017576	        -22.09723106	         -4.06576133	          5.77012823	         51.37350813	         -1.14733009	         -9.95458295	        -42.86314413	         18.85443088	          0.98851036	          1.46683999	        -12.48267158	        -10.16299299	         11.14018491	         49.99724212	        -42.50715438	          3.87952223	         67.50092853	        -68.24794702	          0.30190206	         -3.89478123	          2.56879341	
          0.12857320	         -4.32805784	          7.89610844	        -17.60365479	          1.26830064	          0.98315185	          0.01126355	         -6.35739241	        -11.61338710	          9.43542521	        -38.61443276	        -21.90608506	         -3.64782449	          6.07344530	         50.08543989	         -1.13389091	         -9.99992624	        -40.47952334	         19.58226162	          1.00295849	          0.08813396	        -13.31875072	        -10.31153412	         11.41490953	         49.99955997	        -42.41943362	          4.96490588	         58.91482007	        -67.89166305	          0.12795136	         -3.67926687	          5.61725107	
          0.13246936	         -3.91894272	          7.46427417	        -17.60881790	          1.30619811	          0.98532069	          0.01161177	         -6.18797281	        -11.36187616	          9.25326870	        -39.51451923	        -21.73145748	         -3.03898889	          6.27029870	         48.87800608	         -1.15021732	         -9.94463773	        -38.23614552	         20.27123639	          1.29069210	         -1.34162402	        -14.03023093	        -10.34220351	         11.72270154	         49.97635346	        -42.36888138	          6.49224767	         50.32864406	        -67.83655664	         -0.01255245	         -5.00421068	         10.40645723	
          0.13636551	         -3.66550591	          7.04714415	        -17.55102427	          1.34410877	          0.98713866	          0.01185242	         -5.72965056	        -11.09447007	          8.90724965	        -40.48003260	        -21.38834868	         -2.37680207	          6.37548784	         47.75817872	         -1.14355918	         -9.84807288	        -36.09441855	         20.77624324	          1.77944664	         -1.98755978	        -14.57955221	        -10.32625691	         12.05022212	         49.76924276	        -42.38874709	          8.72475949	         42.10090821	        -68.17004512	         -0.05892511	         -7.38707889	         17.10722826	
          0.14026167	         -3.53073502	          6.69388383	        -17.42102789	          1.38206876	          0.98862926	          0.01199428	         -5.03387064	        -10.87402132	          8.38458910	        -41.48854853	        -20.93236393	         -1.87207720	          6.48991160	         46.67543134	         -1.06134058	         -9.76069034	        -34.00342710	         21.12702470	          2.44942531	         -1.36381470	        -14.98320552	        -10.32516236	         12.37972745	         49.13363409	        -42.46504158	         11.70383849	         34.70868198	        -68.85243688	          0.00300492	         -9.96395861	         25.61831089	
          0.14415783	         -3.47011811	          6.40681262	        -17.20452290	          1.42010502	          0.98987178	          0.01203983	         -4.17383581	        -10.70789961	          7.70701908	        -42.51128250	        -20.46652798	         -1.49480549	          6.59854563	         45.56759685	         -0.88118296	         -9.69783874	        -31.92755670	         21.55204707	          3.32047867	         -0.75294832	        -15.28472880	        -10.34804059	         12.69415743	         47.80323344	        -42.55461332	         15.12423582	         28.68316284	        -69.63160853	          0.06824044	        -11.94063467	         35.35791331	
